HIERARCHY
ROOT Hips
{
	OFFSET 0.00000 0.00000 0.00000
	CHANNELS 6 Xposition Yposition Zposition Yrotation Zrotation Xrotation 
	JOINT Lumbar
	{
		OFFSET 0 0 0
		CHANNELS 3 Zrotation Xrotation Yrotation
		JOINT Neck
		{
			OFFSET 0.00 0.2701 0.00
			CHANNELS 3 Zrotation Xrotation Yrotation
			End Site
			{
				OFFSET 0.00 0.1379 0.00
			}
		}
		JOINT RightShoulder
		{
			OFFSET 0.0119 0.2289 0.1181
			CHANNELS 3 Zrotation Xrotation Yrotation
			JOINT RightElbow
			{
				OFFSET 0.00 -0.1475 0.00
				CHANNELS 2 Zrotation Yrotation
				JOINT RightWrist
				{
					OFFSET 0.00 -0.1605 0.00
					CHANNELS 2 Zrotation Xrotation
					End Site
					{
						OFFSET 0.0040 -0.1068 0.0006
					}
				}
			}
		}
		JOINT LeftShoulder
		{
			OFFSET 0.0119 0.2289 -0.1181
			CHANNELS 3 Zrotation Xrotation Yrotation
			JOINT LeftElbow
			{
				OFFSET 0.00 -0.1475 0.00
				CHANNELS 2 Zrotation Yrotation
				JOINT LeftWrist
				{
					OFFSET 0.00 -0.1605 0.00
					CHANNELS 2 Zrotation Xrotation
					End Site
					{
						OFFSET 0.0040 -0.1068 -0.0006
					}
				}
			}
		}
	}
	JOINT RightHip
	{
		OFFSET 0.0316 -0.0424 0.0458
		CHANNELS 3 Zrotation Xrotation Yrotation
		JOINT RightKnee
		{
			OFFSET 0.00 -0.2438 0.00
			CHANNELS 1 Zrotation
			JOINT RightAnkle
			{
				OFFSET 0.00 -0.2449 0.00
				CHANNELS 3 Zrotation Xrotation Yrotation
				End Site
				{
					OFFSET 0.1237 -0.0542 0.0051
				}
			}
		}
	}
	JOINT LeftHip
	{
		OFFSET 0.0316 -0.0424 -0.0458
		CHANNELS 3 Zrotation Xrotation Yrotation
		JOINT LeftKnee
		{
			OFFSET 0.00 -0.2438 0.00
			CHANNELS 1 Zrotation
			JOINT LeftAnkle
			{
				OFFSET 0.00 -0.2449 0.00
				CHANNELS 3 Zrotation Xrotation Yrotation
				End Site
				{
					OFFSET 0.1237 -0.0542 -0.0051
				}
			}
		}
	}
}
MOTION
Frames: 30
Frame Time: 0.02
0.00422 0.00028 -0.00292 145.88719 -30.55644 -2.88945 45.17735 2.15657 -9.87925 -13.18365 -6.80874 -0.41132 -24.18227 -10.14358 -8.13365 36.35226 88.50378 4.7941 -0.23679 -31.81881 15.31973 -5.21992 43.332 -95.12131 11.36577 0.19274 27.60644 -0.98189 -6.75376 -20.06361 -7.96374 -4.01767 -2.82929 34.23444 8.10994 7.06987 -26.36418 -8.54712 4.91043 3.35439
0.00275 6e-05 -0.00215 145.42663 -30.81556 -2.91556 45.43812 2.30093 -9.52973 -13.29881 -6.6724 -0.41218 -24.19077 -10.33886 -8.12158 36.18434 88.57754 4.86979 -0.24322 -31.94448 15.12542 -5.07413 43.11635 -95.22149 11.47427 0.19284 27.9202 -1.17779 -6.58805 -20.12186 -7.9463 -3.98915 -2.81088 34.43187 7.84654 6.81639 -26.44164 -8.61102 4.96172 3.38821
0.00129 -0.00015 -0.00138 144.96692 -31.07373 -2.94161 45.69778 2.44503 -9.18152 -13.41371 -6.53631 -0.41306 -24.19885 -10.53398 -8.10931 36.01699 88.65111 4.94528 -0.24962 -32.06983 14.93153 -4.92918 42.90135 -95.32128 11.58229 0.19293 28.23284 -1.37346 -6.42271 -20.17991 -7.92894 -3.96066 -2.79249 34.62822 7.58386 6.56493 -26.51878 -8.67459 5.01281 3.42188
-0.00017 -0.00037 -0.0006 144.50768 -31.33201 -2.96763 45.9577 2.58898 -8.83307 -13.52852 -6.40036 -0.41392 -24.20729 -10.72874 -8.09724 35.84959 88.72465 5.02075 -0.25602 -32.19514 14.73774 -4.78383 42.68636 -95.42125 11.69049 0.19301 28.54555 -1.56882 -6.25748 -20.2379 -7.91155 -3.93222 -2.77413 34.82495 7.32127 6.31248 -26.59599 -8.73827 5.06393 3.45559
-0.00164 -0.00058 0.00017 144.04782 -31.59135 -2.99371 46.21884 2.73311 -8.48334 -13.64357 -6.26423 -0.41477 -24.21624 -10.92347 -8.08544 35.68159 88.79834 5.09639 -0.26246 -32.32071 14.54371 -4.6377 42.47075 -95.52133 11.79907 0.19316 28.85961 -1.76429 -6.09193 -20.29632 -7.89409 -3.90377 -2.75575 35.02298 7.05797 6.05741 -26.67357 -8.80235 5.11529 3.48945
-0.0031 -0.00079 0.00095 143.58846 -31.84706 -3.0197 46.47539 2.8771 -8.1384 -13.75814 -6.12822 -0.41572 -24.22247 -11.11937 -8.07218 35.5156 88.87166 5.17157 -0.26878 -32.44557 14.35019 -4.49537 42.25706 -95.62033 11.90581 0.19318 29.16931 -1.96035 -5.92705 -20.35373 -7.87694 -3.87522 -2.73736 35.21585 6.79659 5.81344 -26.74978 -8.86483 5.1658 3.52273
-0.00456 -0.00101 0.00171 143.12855 -32.10968 -3.04582 46.74086 3.02128 -7.78395 -13.87353 -5.99211 -0.41645 -24.23431 -11.31277 -8.0619 35.34579 88.94567 5.2476 -0.27533 -32.57183 14.15555 -4.34501 42.03967 -95.72222 12.01653 0.19328 29.48701 -2.15498 -5.761 -20.41252 -7.85916 -3.84689 -2.719 35.41873 6.53171 5.54781 -26.82862 -8.93044 5.21794 3.55715
-0.00603 -0.00122 0.00249 142.66926 -32.36614 -3.07185 46.99816 3.16517 -7.4387 -13.98818 -5.85612 -0.41738 -24.24071 -11.50836 -8.04881 35.17945 89.01902 5.32287 -0.28169 -32.69657 13.96251 -4.20302 41.82586 -95.81995 12.12287 0.19362 29.79814 -2.35099 -5.59602 -20.47109 -7.84199 -3.81836 -2.70062 35.61266 6.26993 5.30143 -26.90512 -8.99319 5.26861 3.59053
-0.0075 -0.00143 0.00328 142.21 -32.61431 -3.09768 47.24533 3.30924 -7.10287 -14.10194 -5.72009 -0.4186 -24.24144 -11.70723 -8.03248 35.01749 89.09169 5.39713 -0.28771 -32.82046 13.76905 -4.06746 41.61565 -95.91857 12.2267 0.19301 30.09812 -2.54862 -5.4323 -20.52523 -7.82543 -3.78955 -2.6822 35.79451 6.01234 5.08158 -26.97845 -9.05235 5.31737 3.62257
-0.00892 -0.00165 0.00399 141.74835 -32.9079 -3.12438 47.55036 3.4539 -6.70737 -14.22085 -5.58373 -0.41828 -24.27771 -11.88907 -8.03539 34.83075 89.16863 5.47697 -0.29534 -32.95225 13.57088 -3.88346 41.3824 -96.03 12.35352 0.19414 30.4529 -2.73672 -5.26118 -20.59234 -7.80497 -3.76223 -2.66396 36.04246 5.73184 4.71809 -27.06906 -9.13189 5.37679 3.6621
-0.01046 -0.00186 0.00486 141.29325 -33.10708 -3.14945 47.73357 3.59623 -6.44127 -14.32889 -5.44844 -0.42113 -24.23718 -12.1056 -7.99735 34.696 89.23633 5.54516 -0.29982 -33.06546 13.38722 -3.80896 41.19924 -96.10295 12.42637 0.19397 30.69804 -2.94498 -5.10581 -20.64011 -7.79299 -3.73188 -2.64538 36.15316 5.49892 4.65182 -27.12385 -9.16863 5.41392 3.68599
-0.01239 -0.00205 0.00618 140.844 -33.03286 -3.16845 47.57664 3.74102 -6.50514 -14.40719 -5.31303 -0.43334 -23.99945 -12.42795 -7.84822 34.7079 89.28064 5.58028 -0.29362 -33.14249 13.20569 -3.97491 41.1425 -96.1703 12.39799 0.16922 30.59208 -3.20909 -4.99302 -20.57133 -7.8026 -3.69201 -2.62535 35.86496 5.40441 5.45809 -27.074 -9.08504 5.38746 3.66532
-0.01443 -0.00224 0.00766 140.40386 -32.86633 -3.18619 47.29817 3.88167 -6.70372 -14.47471 -5.17937 -0.44863 -23.68263 -12.78278 -7.65751 34.7714 89.3154 5.60404 -0.28461 -33.19792 13.04544 -4.25978 41.1379 -96.18538 12.30911 0.14606 30.38655 -3.49347 -4.89634 -20.49687 -7.82108 -3.64923 -2.60504 35.4429 5.35653 6.5526 -26.98923 -8.95902 5.33903 3.62922
-0.01639 -0.00244 0.00905 139.96709 -32.75164 -3.20547 47.07952 4.01865 -6.8569 -14.54694 -5.04671 -0.46206 -23.39246 -13.11626 -7.48521 34.8085 89.35318 5.63353 -0.27825 -33.25383 12.90042 -4.53214 41.1169 -96.15282 12.21425 0.1372 30.25787 -3.76802 -4.79248 -20.46399 -7.83654 -3.60865 -2.58526 35.09684 5.28181 7.47762 -26.92473 -8.85429 5.30225 3.60128
-0.01847 -0.00262 0.01049 139.49743 -32.59572 -3.2204 46.8425 4.17974 -6.94308 -14.61936 -4.90597 -0.47733 -23.13913 -13.47914 -7.31571 34.85758 89.39621 5.66003 -0.26619 -33.34996 12.65147 -4.63821 41.06601 -96.40137 12.25074 0.0691 29.99067 -4.04467 -4.68732 -20.25841 -7.84761 -3.56469 -2.56392 34.68718 5.2298 8.56441 -26.8421 -8.74098 5.25848 3.56858
-0.02034 -0.00283 0.01187 139.09996 -32.50293 -3.24443 46.61338 4.28879 -7.20134 -14.68955 -4.78311 -0.48961 -22.79312 -13.78657 -7.1295 34.89465 89.42641 5.6908 -0.26523 -33.35613 12.62262 -5.10781 41.08872 -96.07736 12.01168 0.11954 29.99452 -4.32245 -4.5896 -20.42126 -7.87013 -3.52664 -2.54556 34.37736 5.1431 9.38425 -26.7883 -8.63549 5.22393 3.54202
-0.02162 -0.00315 0.01313 138.88691 -32.61495 -3.29126 46.44954 4.26266 -7.89561 -14.7502 -4.70381 -0.49207 -22.18875 -13.94904 -6.91683 34.88028 89.42022 5.72956 -0.29626 -33.12735 13.20907 -6.64682 41.31057 -93.9632 10.91884 0.54269 30.71731 -4.59241 -4.50147 -21.51086 -7.92023 -3.50947 -2.53743 34.38399 4.93589 9.38024 -26.82827 -8.56211 5.2215 3.53704
-0.02268 -0.0035 0.01433 138.74879 -32.79225 -3.34796 46.29537 4.18313 -8.75897 -14.81019 -4.64355 -0.49155 -21.49941 -14.05145 -6.68752 34.85343 89.4019 5.77409 -0.33838 -32.80667 14.01433 -8.53016 41.60308 -91.3129 9.56962 1.07727 31.72502 -4.86393 -4.42216 -22.98424 -7.98186 -3.49773 -2.532 34.49408 4.69489 9.10024 -26.89737 -8.49811 5.22885 3.53859
-0.02382 -0.00383 0.01553 138.58439 -32.93456 -3.40163 46.12773 4.12283 -9.54964 -14.8743 -4.57799 -0.49292 -20.86144 -14.17096 -6.45895 34.83548 89.39152 5.82046 -0.37502 -32.52343 14.71052 -10.19335 41.85752 -89.0576 8.41006 1.5299 32.63939 -5.13869 -4.34264 -24.34783 -8.03953 -3.48087 -2.52399 34.55185 4.47769 8.95755 -26.94955 -8.42969 5.23088 3.53659
-0.02504 -0.00419 0.01684 138.38652 -33.09618 -3.44834 45.9939 4.08272 -10.32973 -14.92155 -4.49792 -0.49217 -20.16083 -14.33513 -6.25565 34.80417 89.37126 5.84819 -0.41354 -32.26005 15.44639 -12.12827 42.13884 -86.17454 6.94487 2.11182 33.40333 -5.39751 -4.24525 -25.4564 -8.09233 -3.4747 -2.52148 34.62812 4.22533 8.77611 -27.01633 -8.36026 5.23588 3.53654
-0.02605 -0.00448 0.01789 138.27725 -33.23423 -3.51287 45.79384 3.98909 -11.16743 -15.00434 -4.45308 -0.49505 -19.5791 -14.39097 -5.99889 34.79897 89.36791 5.9155 -0.45065 -31.93081 16.15346 -13.57896 42.38038 -84.45603 6.04953 2.45459 34.54247 -5.68957 -4.18998 -27.16476 -8.15762 -3.44809 -2.50842 34.69117 4.03899 8.60437 -27.05971 -8.29597 5.23727 3.53417
-0.0265 -0.00461 0.01832 138.38439 -33.29223 -3.6155 45.40649 3.75047 -12.14499 -15.18188 -4.49632 -0.50901 -19.28269 -14.16758 -5.57658 34.85166 89.42292 6.09749 -0.48271 -31.46767 16.7086 -13.59393 42.49542 -86.22571 6.84865 2.07765 36.70899 -6.07312 -4.22077 -30.62698 -8.25707 -3.35944 -2.46327 34.7015 4.03088 8.54059 -27.03496 -8.24138 5.22649 3.52399
-0.02676 -0.00467 0.01848 138.58009 -33.3246 -3.73696 44.95327 3.46163 -13.16883 -15.39603 -4.57496 -0.52663 -19.12151 -13.83607 -5.10533 34.93354 89.4944 6.31807 -0.51269 -30.93687 17.23042 -13.1115 42.56878 -89.15977 8.21987 1.46215 39.23199 -6.4896 -4.29732 -34.64206 -8.36833 -3.25092 -2.40789 34.69387 4.09234 8.49246 -26.98529 -8.1922 5.21177 3.51129
-0.02713 -0.00474 0.01871 138.74144 -33.36843 -3.85599 44.53198 3.2027 -14.15762 -15.59569 -4.64069 -0.54234 -18.94019 -13.55057 -4.67118 35.01375 89.55193 6.51636 -0.54259 -30.42029 17.78002 -12.86597 42.65904 -91.46838 9.2909 0.97691 41.55278 -6.89128 -4.3732 -38.28066 -8.47228 -3.15421 -2.35861 34.68925 4.12992 8.42632 -26.94471 -8.14227 5.19889 3.49971
-0.02737 -0.00489 0.01913 138.87979 -33.415 -3.95107 44.10199 2.9125 -15.21592 -15.78586 -4.69468 -0.55903 -18.58001 -13.27641 -4.17383 35.04661 89.63386 6.73419 -0.5772 -29.96984 18.28475 -12.5879 42.75561 -94.16479 10.52134 0.40337 44.05482 -7.29374 -4.37062 -42.46855 -8.58418 -3.04562 -2.30307 34.71015 4.1341 8.39526 -26.91405 -8.08571 5.18631 3.48851
-0.02785 -0.00486 0.0191 139.08704 -33.44928 -4.09838 43.67505 2.67555 -16.13276 -16.00498 -4.78002 -0.57456 -18.62736 -12.95348 -3.79651 35.18265 89.67213 6.92132 -0.60136 -29.36731 18.87115 -12.25352 42.83425 -96.33695 11.56061 -0.04441 46.25827 -7.7006 -4.53441 -45.62959 -8.68298 -2.95738 -2.25838 34.672 4.22431 8.30025 -26.85707 -8.04379 5.17179 3.47575
-0.02902 -0.00434 0.01798 139.45465 -33.45306 -4.40233 43.26721 2.60396 -16.69274 -16.2912 -4.95373 -0.58608 -19.75288 -12.52482 -3.76462 35.61902 89.56252 7.00727 -0.59636 -28.35831 19.6989 -11.89634 42.82271 -96.77883 11.91891 -0.08652 47.5664 -8.12674 -5.21399 -45.89816 -8.73504 -2.92675 -2.24394 34.4773 4.5394 8.00951 -26.72795 -8.04399 5.15502 3.46006
-0.03044 -0.00366 0.01642 139.88989 -33.44564 -4.75478 42.86589 2.58688 -17.09922 -16.60618 -5.15554 -0.5963 -21.28682 -12.0508 -3.85493 36.15455 89.41501 7.06281 -0.58053 -27.20037 20.60746 -11.49631 42.80453 -96.65493 12.06868 0.00562 48.55763 -8.5533 -6.04725 -45.1001 -8.77442 -2.91789 -2.24116 34.22281 4.93802 7.65784 -26.57404 -8.05818 5.13601 3.44271
-0.03176 -0.00309 0.01503 140.29894 -33.44483 -5.07402 42.46488 2.54115 -17.54588 -16.91037 -5.33779 -0.60708 -22.64363 -11.59598 -3.88804 36.62935 89.2974 7.13615 -0.57072 -26.11218 21.47284 -11.10631 42.82138 -96.79166 12.32399 0.03565 49.68128 -8.96972 -6.76515 -44.73407 -8.82516 -2.90133 -2.23455 33.99394 5.2957 7.34574 -26.43507 -8.06392 5.11657 3.4256
-0.03303 -0.00238 0.01376 140.69119 -33.43653 -5.44179 42.04699 2.50993 -18.12019 -17.20558 -5.55076 -0.61813 -23.96981 -11.14262 -3.92639 37.16934 89.11785 7.19185 -0.55814 -25.00985 22.36438 -10.73711 42.69835 -96.95501 12.55416 0.06191 50.86497 -9.42937 -7.67479 -44.60029 -8.85454 -2.87491 -2.22154 33.77145 5.66836 6.98483 -26.27998 -8.07859 5.10305 3.41058
